<?xml version="1.0" encoding="utf-8"?>
<!-- Generator: Adobe Illustrator 25.2.0, SVG Export Plug-In . SVG Version: 6.00 Build 0)  -->
<svg version="1.1" id="Layer_1" xmlns="http://www.w3.org/2000/svg" xmlns:xlink="http://www.w3.org/1999/xlink" x="0px" y="0px"
	 viewBox="0 0 714 248" style="enable-background:new 0 0 714 248;" xml:space="preserve">
<style type="text/css">
	.st0{fill:#FFFFFF;}
</style>
<g>
	<path className="st0" d="M685.1,132.9c-16.2,0-28.2,14-28,32.3c0.2,14.6,10.2,23.4,28.1,23.8c19.1,1.4,28.3-13.8,28.8-25.3
		C714.6,147.4,700.8,132.9,685.1,132.9z M459.7,58.9c-10.1-5.9-20.3-11.3-32.6-11.3c-14.3,0-28.2,0.4-37.5,13.8c-2.8,4-6.5,5-11.3,4
		c-5.7-1.1-10.8-2.9-15.7-6.1c-7.6-4.9-15.9-8.4-24.8-10.2c-9.7-2-16.3,2.7-19.7,12.6c-2.6,7.4,2.9,13.3,10.8,12.4
		c2-0.2,4-0.7,5.9-0.8c10.6-0.7,18.9,5.6,20.4,16.1c3.6,25.1,1.9,49.8-6.9,73.8c-1.1,3.1-2.6,5-6.2,5.5c-7.2,1.1-14.4,2.6-21.6,4.1
		c-8.5,1.7-9,2.3-9.9,11c-0.2,2.3-1.1,4.6,0.8,8.3c4.9-0.9,9.7-1.8,14.6-2.7c26.5-5,53.1-9.5,80.3-7c10.3,1,10.3,0.6,11.9-9.9
		c1.7-10.8,1.5-11-9.8-11.7c-7.7-0.5-15.3-0.8-23-1.4c-2.7-0.2-5.2-0.8-6.1-4.1c-3.5-13-6.4-26-2.4-39.3c1.5-5.1,3.2-10,7.1-14.1
		c9.1-9.4,20.6-13,33-14.8c4.2-0.6,7.9,1.1,11.1,3.6c3.2,2.5,6.1,5.1,9.2,7.7c3.1,2.6,5.9,5.4,9.6,7.2c4.2,2,7.3,2,9.6-3
		c3-6.3,6.7-12.3,10-18.4C471.6,75.4,468.6,64.1,459.7,58.9z M300.5,107.9c-0.5-10-1.4-19.9-4-29.7c-1.9-7.4-6-13.4-11.8-18.1
		c-11.4-9.5-24.7-14.8-39.3-15.3c-26.1-1-49.4,7.3-68.9,24.3c-14,12.2-20.1,28.3-16.6,46.7c3.8,19.9,12.8,37.5,25.1,53.8
		c12.7,16.9,39.2,20.5,52.5,16.4c19.1-5.9,33.8-19.6,49.7-31.2c3.9-2.8,2.2-7.6,0.3-11c-2.1-3.7-5.3-0.9-7.9-0.1
		c-2.8,0.9-5.5,2.3-8.2,3.6c-9.6,4.6-19.1,9.5-29.4,12.4c-11.1,3.1-22.6,5.4-32.8-1.8c-9.3-6.5-17-14.8-23.1-24.5
		c-2.8-4.4-1.5-7.2,1.4-10.5c1.9-2.1,4.3-3,6.8-3.9c9.2-3.2,18.7-4.3,28.5-3.4c16.6,1.5,33.2,3.1,49.8,2.9c6,0,12,0.1,18,0
		C299.3,118.2,300.9,116.9,300.5,107.9z M267.9,89.2c-1.4,4.4-5.2,6.8-9.9,7.2c-10.6,1-21.2,2.8-29.5,2.6c-11-0.1-19.6-0.9-28.2-2.4
		c-4.8-0.8-5.2-2.7-3.4-6.7c2.5-5.8,6.8-10.1,12.1-12.9c16.3-8.5,33.2-8.4,50.3-1.9c1.2,0.5,2.6,0.9,3.5,1.8
		C266.2,80.4,269.5,84.1,267.9,89.2z M143.6,170.5c-3-2-5.8-4.6-9-6.4c-5.7-3.2-7.2-7.8-7-14.1c0.4-15.7,0.2-31.3,0.1-47
		c-0.1-17.7,0.5-35.4-0.8-53c-0.9-13-1.7-25.9-0.4-38.9c0.6-6.6,0.1-7.2-6.9-8C109.4,2,99.1,0.7,88.8,0.1C80.5-0.4,72.2,1,64,2.4
		c-2.8,0.5-3.7,2.5-4.2,4.9c-0.6,2.8,0.7,4.4,3.2,5.3c2.2,0.8,4.4,1.7,6.5,2.5c9,3.6,17.5,8.3,24.8,14.7c2.2,2,4.7,3.8,4.7,7.2
		c0.1,5.7-0.2,11.4-2.5,16.7c-2.9,6.5-6.1,7.7-12.6,4.7c-3-1.4-6-3-9.1-4.1C54.3,46.7,33.5,51,20.1,66.7C11,77.4,4.3,89.8,1.8,103.9
		c-5.6,31.3,1.2,57.9,28.4,77.6c10.1,7.3,20.3,10.7,32.5,9.8c9.1-0.7,17.4-4.2,26-6.7c3.5-1,6.8-2.8,10.6-1.3c7,2.7,14.4,2.2,21.7,2
		c6.3-0.6,12.6-1,18.9-1.8c3.2-0.4,6.8-0.5,7.7-5C148.6,174.6,146.5,172.4,143.6,170.5z M62.9,158.9c-10.5,1-16.2-5.3-20.5-13.2
		C39.9,141,38,136,36.1,131c-3.2-8-3.4-16.2-0.7-24.4c2.8-8.3,7-15.8,12.8-22.3c8.4-9.4,20.9-10,30.1-1.4
		c9.5,8.8,15.8,19.8,18.5,32.4C101.4,135.8,83.7,158.1,62.9,158.9z M618,55.8c-17.7-10.1-37.5-13-57.9-12.1c-3.9,0.2-7.3,1-9.9,3.9
		c-4.1,4.5-8.6,4.2-13.5,1.8c-3-1.5-6.4-2.2-9.2-3.9c-6-3.8-12.4-4-19.2-3.8c-6.8,0.3-11,4.8-15.1,8.9c-3.8,3.9,0.9,7.9,1.6,12
		c0.2,1,0.6,1.9,0.8,2.9c1,3.7,3.3,5.6,7.3,5c7.8-1.1,11.5,3.5,14.1,9.8c4.5,10.6,6.5,22,5.5,33.2c-2.3,26.5-5.7,53-13.3,78.7
		c-3.8,12.9-8.8,24.4-22.2,29.9c-4.5,1.8-4.4,5.4-3.6,9.2c0.7,3.8,3.8,3,6.3,3.1c9,0.6,17.9,0.2,26.9,1.7c17.8,2.8,35.2,7.3,52.8,11
		c9.4,2,9.4,2,9.8-7.1c0-1.3,0-2.7,0.1-4c0.5-4.8-1.6-7.1-6.2-8.5c-7-2-13.9-4.7-20.8-7.1c-4.8-1.6-8.3-4.7-9.2-9.6
		c-2.1-11.1-3.6-22.4-3.8-33.7c0-3.2,0.5-6.1,3.6-7.7c3.5-1.9,5.5,1,7.6,3c4.4,4,8.3,8.9,14.2,10.8c15.5,4.8,37.6,3.9,52.2-12.6
		c17.6-19.7,23.7-43.3,26.4-62.4C645.4,79.2,632.3,64,618,55.8z M605.8,141.2c-6.7,11.2-16.6,16.9-29.6,15.9
		c-8.5,0.2-16.1-1.3-22.3-7.4c-5.7-5.5-6.5-13-8-20c-2.8-14,1.3-27.4,6.6-39.8c7.1-16.7,32.7-21.9,47.2-11c3.7,2.8,4.7,7.2,7,10.8
		C617.9,107.1,616,124.3,605.8,141.2z"/>
	<path className="st0" d="M618,55.8c-17.7-10.1-37.5-13-57.9-12.1c-3.9,0.2-7.3,1-9.9,3.9c-4.1,4.5-8.6,4.2-13.5,1.8
		c-3-1.5-6.4-2.2-9.2-3.9c-6-3.8-12.4-4-19.2-3.8c-6.8,0.3-11,4.8-15.1,8.9c-3.8,3.9,0.9,7.9,1.6,12c0.2,1,0.6,1.9,0.8,2.9
		c1,3.7,3.3,5.6,7.3,5c7.8-1.1,11.5,3.5,14.1,9.8c4.5,10.6,6.5,22,5.5,33.2c-2.3,26.5-5.7,53-13.3,78.7
		c-3.8,12.9-8.8,24.4-22.2,29.9c-4.5,1.8-4.4,5.4-3.6,9.2c0.7,3.8,3.8,3,6.3,3.1c9,0.6,17.9,0.2,26.9,1.7c17.8,2.8,35.2,7.3,52.8,11
		c9.4,2,9.4,2,9.8-7.1c0-1.3,0-2.7,0.1-4c0.5-4.8-1.6-7.1-6.2-8.5c-7-2-13.9-4.7-20.8-7.1c-4.8-1.6-8.3-4.7-9.2-9.6
		c-2.1-11.1-3.6-22.4-3.8-33.7c0-3.2,0.5-6.1,3.6-7.7c3.5-1.9,5.5,1,7.6,3c4.4,4,8.3,8.9,14.2,10.8c15.5,4.8,37.6,3.9,52.2-12.6
		c17.6-19.7,23.7-43.3,26.4-62.4C645.4,79.2,632.3,64,618,55.8z M605.8,141.2c-6.7,11.2-16.6,16.9-29.6,15.9
		c-8.5,0.2-16.1-1.3-22.3-7.4c-5.7-5.5-6.5-13-8-20c-2.8-14,1.3-27.4,6.6-39.8c7.1-16.7,32.7-21.9,47.2-11c3.7,2.8,4.7,7.2,7,10.8
		C617.9,107.1,616,124.3,605.8,141.2z"/>
	<path className="st0" d="M143.6,170.5c-3-2-5.8-4.6-9-6.4c-5.7-3.2-7.2-7.8-7-14.1c0.4-15.7,0.2-31.3,0.1-47c-0.1-17.7,0.5-35.4-0.8-53
		c-0.9-13-1.7-25.9-0.4-38.9c0.6-6.6,0.1-7.2-6.9-8C109.4,2,99.1,0.7,88.8,0.1C80.5-0.4,72.2,1,64,2.4c-2.8,0.5-3.7,2.5-4.2,4.9
		c-0.6,2.8,0.7,4.4,3.2,5.3c2.2,0.8,4.4,1.7,6.5,2.5c9,3.6,17.5,8.3,24.8,14.7c2.2,2,4.7,3.8,4.7,7.2c0.1,5.7-0.2,11.4-2.5,16.7
		c-2.9,6.5-6.1,7.7-12.6,4.7c-3-1.4-6-3-9.1-4.1C54.3,46.7,33.5,51,20.1,66.7C11,77.4,4.3,89.8,1.8,103.9
		c-5.6,31.3,1.2,57.9,28.4,77.6c10.1,7.3,20.3,10.7,32.5,9.8c9.1-0.7,17.4-4.2,26-6.7c3.5-1,6.8-2.8,10.6-1.3c7,2.7,14.4,2.2,21.7,2
		c6.3-0.6,12.6-1,18.9-1.8c3.2-0.4,6.8-0.5,7.7-5C148.6,174.6,146.5,172.4,143.6,170.5z M62.9,158.9c-10.5,1-16.2-5.3-20.5-13.2
		C39.9,141,38,136,36.1,131c-3.2-8-3.4-16.2-0.7-24.4c2.8-8.3,7-15.8,12.8-22.3c8.4-9.4,20.9-10,30.1-1.4
		c9.5,8.8,15.8,19.8,18.5,32.4C101.4,135.8,83.7,158.1,62.9,158.9z"/>
	<path className="st0" d="M300.5,107.9c-0.5-10-1.4-19.9-4-29.7c-1.9-7.4-6-13.4-11.8-18.1c-11.4-9.5-24.7-14.8-39.3-15.3
		c-26.1-1-49.4,7.3-68.9,24.3c-14,12.2-20.1,28.3-16.6,46.7c3.8,19.9,12.8,37.5,25.1,53.8c12.7,16.9,39.2,20.5,52.5,16.4
		c19.1-5.9,33.8-19.6,49.7-31.2c3.9-2.8,2.2-7.6,0.3-11c-2.1-3.7-5.3-0.9-7.9-0.1c-2.8,0.9-5.5,2.3-8.2,3.6
		c-9.6,4.6-19.1,9.5-29.4,12.4c-11.1,3.1-22.6,5.4-32.8-1.8c-9.3-6.5-17-14.8-23.1-24.5c-2.8-4.4-1.5-7.2,1.4-10.5
		c1.9-2.1,4.3-3,6.8-3.9c9.2-3.2,18.7-4.3,28.5-3.4c16.6,1.5,33.2,3.1,49.8,2.9c6,0,12,0.1,18,0
		C299.3,118.2,300.9,116.9,300.5,107.9z M267.9,89.2c-1.4,4.4-5.2,6.8-9.9,7.2c-10.6,1-21.2,2.8-29.5,2.6c-11-0.1-19.6-0.9-28.2-2.4
		c-4.8-0.8-5.2-2.7-3.4-6.7c2.5-5.8,6.8-10.1,12.1-12.9c16.3-8.5,33.2-8.4,50.3-1.9c1.2,0.5,2.6,0.9,3.5,1.8
		C266.2,80.4,269.5,84.1,267.9,89.2z"/>
	<path className="st0" d="M311.5,192.3c-1.9-3.7-1.1-6-0.8-8.3c0.9-8.7,1.4-9.3,9.9-11c7.2-1.4,14.4-3,21.6-4.1c3.5-0.5,5-2.4,6.2-5.5
		c8.8-24,10.5-48.7,6.9-73.8c-1.5-10.6-9.8-16.8-20.4-16.1c-2,0.1-4,0.5-5.9,0.8c-7.8,0.9-13.3-5-10.8-12.4
		c3.4-9.9,10.1-14.6,19.7-12.6c8.9,1.8,17.2,5.3,24.8,10.2c4.9,3.1,10,4.9,15.7,6.1c4.9,1,8.6,0,11.3-4
		c9.3-13.4,23.2-13.8,37.5-13.8c12.2,0,22.5,5.3,32.6,11.3c8.9,5.3,11.9,16.5,7,25.5c-3.4,6.1-7.1,12.1-10,18.4c-2.3,5-5.5,5-9.6,3
		c-3.7-1.8-6.5-4.6-9.6-7.2c-3.1-2.6-6-5.3-9.2-7.7c-3.2-2.5-7-4.2-11.1-3.6c-12.4,1.8-24,5.4-33,14.8c-3.9,4-5.6,9-7.1,14.1
		c-4,13.4-1.1,26.4,2.4,39.3c0.9,3.3,3.4,3.9,6.1,4.1c7.6,0.5,15.3,0.9,23,1.4c11.3,0.7,11.5,1,9.8,11.7
		c-1.7,10.6-1.7,10.9-11.9,9.9c-27.2-2.6-53.8,2-80.3,7C321.2,190.5,316.3,191.4,311.5,192.3z"/>
	<path className="st0" d="M685.2,189c-17.9-0.4-28-9.2-28.1-23.8c-0.2-18.3,11.9-32.3,28.1-32.3c15.7,0,29.6,14.5,28.9,30.8
		C713.4,175.3,704.3,190.4,685.2,189z"/>
</g>
</svg>
